PathFileType	4	(X/Y/Z)	testWalking.trc	
DataRate	CameraRate	NumFrames	NumMarkers	Units	OrigDataRate	OrigDataStartFrame	OrigNumFrames
120	120	6	28	mm	120	249	183
Frame#	Time	RSHO			LSHO			C7			RASI			LASI			SACR			RTHAP			RTHAD			RTHLD			RLEPI			RTIAP			RTIAD			RLMAL			RHEEL			RP1MT			RP5MT			RTOE			LTHAP			LTHAD			LTHLD			LLEPI			LTIAP			LTIAD			LLMAL			LHEEL			LP1MT			LP5MT			LTOE			
		X1	Y1	Z1	X2	Y2	Z2	X3	Y3	Z3	X4	Y4	Z4	X5	Y5	Z5	X6	Y6	Z6	X7	Y7	Z7	X8	Y8	Z8	X9	Y9	Z9	X10	Y10	Z10	X11	Y11	Z11	X12	Y12	Z12	X13	Y13	Z13	X14	Y14	Z14	X15	Y15	Z15	X16	Y16	Z16	X17	Y17	Z17	X18	Y18	Z18	X19	Y19	Z19	X20	Y20	Z20	X21	Y21	Z21	X22	Y22	Z22	X23	Y23	Z23	X24	Y24	Z24	X25	Y25	Z25	X26	Y26	Z26	X27	Y27	Z27	X28	Y28	Z28	

115	0.95000	1458.86829	1411.91821	157.39403	1363.16248	1416.59070	-201.96471	1367.30273	1495.58594	-18.29224	1430.33105	955.32190	140.70943	1430.34192	944.18805	-132.66423	1249.09839	992.94470	-7.06747	1377.52246	641.37219	89.52422	1322.34082	549.59631	95.84923	1256.77771	596.33984	150.49767	1208.05542	491.51459	129.63237	1166.33252	335.25308	54.35486	1106.68604	231.86433	48.16379	993.95135	120.60281	83.38252	933.68030	97.29086	30.88316	1094.17249	35.63504	125.28477	1124.80310	39.89685	5.13770	1173.29065	41.48302	46.14377	1539.94324	681.87000	-78.91752	1566.91785	607.66980	-78.55578	1498.23804	583.03180	-156.51875	1529.40393	492.33374	-136.43710	1610.73145	354.36578	-66.17437	1646.57080	252.37643	-67.73095	1658.65283	89.49424	-109.55506	1632.62964	34.53545	-49.99496	1809.55530	81.55786	-150.61411	1830.11035	112.86349	-35.34308	1856.64404	130.10869	-77.43405	
116	0.95833	1471.91614	1410.43579	155.73296	1375.04150	1415.02246	-203.42874	1379.86926	1494.23438	-19.81627	1443.37036	953.39703	139.65929	1442.69922	943.05969	-134.26508	1261.49426	991.95972	-7.60127	1389.70801	639.50220	89.37611	1333.77905	547.91296	96.17204	1268.61475	595.02667	150.27516	1219.56091	490.25046	129.61729	1174.42944	334.73654	54.61752	1112.32690	232.72774	48.80122	997.13849	124.14704	84.68730	936.01843	102.81991	32.20598	1094.79480	35.85281	125.46886	1125.21631	39.96147	5.26868	1173.15076	40.89178	45.39937	1554.04810	682.57770	-79.52969	1580.89819	607.66919	-80.40932	1513.14502	583.71912	-156.75049	1542.93225	491.69955	-136.49072	1621.19897	352.09900	-65.77760	1655.50232	250.18259	-67.09211	1665.76379	88.86907	-108.43405	1636.58508	34.44220	-47.81879	1813.65857	74.90709	-149.72337	1835.78625	104.71093	-34.78494	1863.46655	122.77037	-76.90800	
117	0.96667	1485.04614	1409.21375	154.00648	1387.02759	1413.68860	-204.97878	1392.49146	1493.20093	-21.46449	1456.67322	951.57581	138.45226	1455.21338	942.58929	-135.65475	1273.91919	991.51270	-7.62411	1402.27966	637.83948	89.17952	1346.09180	546.28558	96.34599	1280.93762	593.75427	149.87587	1231.65625	489.02368	129.44106	1183.10742	334.32944	54.73195	1118.51770	233.79453	49.31046	1000.83893	128.15741	85.86815	938.99689	108.93672	33.49573	1095.58984	36.12758	125.64967	1125.68445	40.01483	5.38367	1173.30420	40.36793	44.96307	1568.27625	682.47864	-80.72662	1594.34192	607.44910	-82.34484	1526.99280	584.21490	-156.82039	1554.74744	491.18298	-136.86578	1631.80090	351.47974	-65.87334	1664.87402	249.70032	-67.04298	1673.52881	88.33902	-107.87741	1641.01892	35.65020	-46.66974	1818.90491	66.85575	-148.29568	1842.10022	95.50911	-33.92268	1871.42322	114.12939	-75.88145	
118	0.97500	1498.18323	1408.39978	152.23936	1399.06018	1412.70630	-206.56918	1405.40320	1492.71790	-23.24844	1470.20129	949.96545	137.10973	1467.68628	942.73309	-137.09962	1286.45410	991.29425	-7.30678	1415.33362	636.39227	88.88557	1359.04907	544.93591	96.30617	1293.90479	592.59528	149.34151	1244.47192	487.96835	129.25639	1192.55249	334.18799	54.71448	1125.39429	235.20984	49.74704	1005.13080	132.65141	86.86311	942.72235	115.63079	34.60435	1096.55664	36.51752	125.81837	1126.40088	40.10352	5.49309	1173.82483	39.96524	44.90372	1582.39917	682.11157	-82.30188	1607.08923	606.86792	-84.14560	1539.37390	584.67847	-156.98578	1564.77234	490.97772	-138.01038	1642.08472	351.77139	-66.14417	1673.80396	249.26555	-67.00883	1680.81787	87.81209	-107.89709	1644.72607	36.99842	-47.28749	1824.15613	58.56576	-147.21202	1848.20166	85.64059	-32.64200	1878.98499	103.33083	-74.62318	
119	0.98333	1511.26880	1407.99536	150.42049	1411.14014	1412.11377	-208.15965	1418.65662	1492.77307	-25.03085	1483.80566	948.72003	135.65993	1479.89844	943.36609	-138.69415	1298.26904	991.17114	-6.71115	1429.04321	635.29205	88.42329	1372.77991	543.81995	96.06425	1307.64807	591.56171	148.81709	1258.25818	487.13681	129.23705	1202.81995	334.24298	54.75838	1133.09521	236.96626	50.18765	1010.09143	137.64946	87.64323	947.25476	122.95629	35.32008	1097.76782	37.01639	125.97069	1127.49841	40.25630	5.57405	1174.49561	39.56607	44.88272	1596.28455	681.54810	-83.96742	1619.30176	606.21637	-85.59411	1550.42688	585.14679	-157.89272	1574.42834	491.27145	-139.71970	1651.92383	351.92847	-66.26235	1681.99292	248.14676	-66.91814	1686.82141	87.26391	-108.26074	1647.43982	38.18299	-47.99353	1828.34888	51.18801	-146.23431	1852.76526	77.20190	-31.25194	1885.21545	93.23429	-72.98987	
120	0.99167	1524.35168	1408.04895	148.64522	1423.32361	1411.89551	-209.71637	1431.95874	1493.12415	-26.75259	1497.45728	947.87683	134.12773	1491.75916	944.55634	-140.38559	1309.49011	991.23151	-6.01221	1443.43518	634.51288	87.79420	1387.38904	542.87341	95.67616	1322.17871	590.52814	148.25612	1273.07727	486.33847	129.32365	1213.94812	334.28323	54.91072	1141.63196	238.83411	50.53365	1015.83789	143.06935	88.20464	952.78650	130.90067	35.60948	1099.30261	37.62006	126.07695	1128.89490	40.47747	5.58556	1175.40015	39.16368	44.88136	1609.78699	680.78809	-85.91611	1631.30432	606.28693	-86.36446	1560.37390	585.40460	-159.75029	1585.87402	492.48187	-141.55710	1661.61060	351.63928	-66.52898	1689.65698	246.85225	-67.06179	1691.15369	86.38129	-108.65648	1649.66968	39.32856	-48.37724	1831.32874	45.05832	-145.53943	1855.94788	70.63357	-30.44443	1890.03198	85.11630	-71.58584	
